{"title":"Jean Michel Jarre ~Oxygen, Live In Your Livingroom 3D~ [AC-3 5.1","uid":5299462,"size":732610966,"categoryP":"video","categoryS":"music_videos","magnet":"?xt=urn:btih:ec09dd17bc34b50bbffcf03c8e17e78f36293145&amp;dn=Jean+Michel+Jarre+%7EOxygen%2C+Live+In+Your+Livingroom+3D%7E+%5BAC-3+5.1&amp;tr=udp%3A%2F%2Ftracker.openbittorrent.com%3A80&amp;tr=udp%3A%2F%2Fopen.demonii.com%3A1337&amp;tr=udp%3A%2F%2Ftracker.coppersurfer.tk%3A6969&amp;tr=udp%3A%2F%2Fexodus.desync.com%3A6969","seeders":0,"leechers":1,"uploader":"Filmofiel","files":1,"time":1264173098,"description":"Recorded live in 2007, 3D glasses needed.\n\nFormat                           : AVI\nFormat/Info                      : Audio Video Interleave\nFile size                        : 699 MiB\nDuration                         : 59mn 44s\nOverall bit rate                 : 1 635 Kbps\nMovie name                       : DVD_VOLUME.Title6.DVDRip\nDirector                         : Ik\nWriting application              : Lavf51.19.0\nOriginal source form/Name        : DVD_VOLUME\n\nVideo\nID                               : 0\nFormat                           : MPEG-4 Visual\nFormat profile                   : Simple@L3\nFormat settings, BVOP            : No\nFormat settings, QPel            : No\nFormat settings, GMC             : No warppoints\nFormat settings, Matrix          : Default (H.263)\nCodec ID                         : XVID\nCodec ID/Hint                    : XviD\nDuration                         : 59mn 43s\nBit rate                         : 1 177 Kbps\nWidth                            : 1 024 pixels\nHeight                           : 576 pixels\nDisplay aspect ratio             : 16:9\nFrame rate                       : 25.000 fps\nResolution                       : 8 bits\nColorimetry                      : 4:2:0\nScan type                        : Progressive\nBits/(Pixel*Frame)               : 0.080\nStream size                      : 503 MiB (72%)\nWriting library                  : XviD 1.1.2 (UTC 2006-11-01)\n\nAudio\nID                               : 1\nFormat                           : AC-3\nFormat/Info                      : Audio Coding 3\nCodec ID                         : 2000\nDuration                         : 59mn 44s\nBit rate mode                    : Constant\nBit rate                         : 448 Kbps\nChannel(s)                       : 6 channels\nChannel positions                : Front: L C R, Surround: L R, LFE\nSampling rate                    : 48.0 KHz\nStream size                      : 191 MiB (27%)\nAlignment                        : Aligned on interleaves\nInterleave, duration             : 32 ms (0.80 video frame)\nInterleave, preload duration     : 32 ms\n\n","torrent":{"xt":"urn:btih:ec09dd17bc34b50bbffcf03c8e17e78f36293145","amp;dn":"Jean+Michel+Jarre+%7EOxygen%2C+Live+In+Your+Livingroom+3D%7E+%5BAC-3+5.1","amp;tr":["udp%3A%2F%2Ftracker.openbittorrent.com%3A80","udp%3A%2F%2Fopen.demonii.com%3A1337","udp%3A%2F%2Ftracker.coppersurfer.tk%3A6969","udp%3A%2F%2Fexodus.desync.com%3A6969"],"infoHash":"ec09dd17bc34b50bbffcf03c8e17e78f36293145","infoHashBuffer":{"type":"Buffer","data":[236,9,221,23,188,52,181,11,191,252,240,60,142,23,231,143,54,41,49,69]},"announce":[],"urlList":[]}}